<?xml version="1.0" encoding="UTF-8"?>
<svg id="Layer_1" data-name="Layer 1" xmlns="http://www.w3.org/2000/svg" viewBox="0 0 2000 697.15">
  <defs>
    <style>
      .cls-1 {
        fill: #fff;
        opacity: .5;
      }
    </style>
  </defs>
  <path class="cls-1" d="M1269.15,170.34l-340.26,341.36h-421.23c53.62-54.27,107.25-108.54,160.87-162.81-12.95-.04-25.9-.08-38.84-.12,60.34-59.47,120.69-118.95,181.04-178.42h458.42ZM954.05,299.45h-62.36c-2.21,0-7.76,1.58-9.88,3.05-11.37,7.92-64.13,61.56-73.29,73.52-1.69,2.21-4.22,2.76-3.27,6.58h66.74c3.32-1.68,5.93-4.25,8.81-6.51,14.98-11.76,58.54-55.12,69.98-70.06,1.69-2.21,4.22-2.76,3.27-6.58Z"/>
  <path class="cls-1" d="M746.17,170.34l-177.24,179.43c12.04.07,24.07.14,36.11.21-53.98,53.91-107.95,107.81-161.93,161.72H0L340.26,170.34h405.91ZM551.42,251.31h-110.5c-11.46,14.82-30.4,26.95-41.59,41.56-1.69,2.21-4.22,2.76-3.27,6.58h97.37l57.99-48.14ZM262.58,430.74h110.5l47.04-47.06c-.91-1.79-5.67-1.99-7.64-2.05-33.82-.95-68.46,2.32-102.4,1.41l-47.49,47.69ZM633.55,329.68"/>
  <path class="cls-1" d="M2000,170.34v128.01l-3.28,3.28h-126.91l-210.07,210.07h-187.09l206.82-207.84,1.04-4.4c-2.99,1.52-5.56,0-7.64,0h-134.57l13.13-129.1h448.58Z"/>
  <polygon class="cls-1" points="1514.22 170.34 1308.53 382.6 1444.2 382.6 1439.82 506.23 1436.54 511.7 989.06 511.7 991.86 506.69 1329.32 170.34 1514.22 170.34"/>
</svg>