<?xml version="1.0" encoding="UTF-8"?>
<svg id="Layer_1" data-name="Layer 1" xmlns="http://www.w3.org/2000/svg" viewBox="0 0 2000 697.15">
  <defs>
    <style>
      .cls-1 {
        fill: #fff;
      }

      .cls-2 {
        opacity: .5;
      }
    </style>
  </defs>
  <g class="cls-2">
    <path class="cls-1" d="M248.72,559.98c15.31-1.66,34.95,13.56,42.14,26.42,10.61,18.96-5.35,41.58-21.43,51.62-10.43,6.51-20.92,5.69-31.49-.04-12.69-6.88-27.84-23.52-26.12-38.9,1.63-14.63,21.94-37.47,36.9-39.1Z"/>
    <path class="cls-1" d="M565.6,49.97c12.06-2.05,18.6.43,27.61,7.71,12.51,10.11,22.8,25.55,18.44,42.33-3.35,12.9-26.35,31.42-39.89,32.12-19.45,1-44.12-27.96-41.46-46.86,1.81-12.84,22.59-33.14,35.3-35.3Z"/>
    <path class="cls-1" d="M142.13,49.97c8.86-1.52,15.51-.41,22.91,4.42,10.29,6.72,23.6,23.21,24.14,35.85.79,18.49-25.47,42.04-43.37,41.95-16.27-.08-38.44-24.81-39.34-40.56-.98-17.07,19.3-38.86,35.67-41.67Z"/>
    <path class="cls-1" d="M247.33,49.97c12.99-2.21,20.32,1.35,29.66,9.65,11.55,10.27,23.41,29.82,14.44,45.1-6.98,11.87-25.99,27.56-40.42,27.48-16.45-.09-38.66-25.82-39.37-41.91-.69-15.77,20.69-37.77,35.7-40.32Z"/>
    <path class="cls-1" d="M566.99,559.98c14.85-1.62,31,11.11,39.46,22.44,11.44,15.33,6.14,31.49-5.84,44.52-9.68,10.52-18.6,17.38-33.67,14.96-13.6-2.18-35.43-22.61-36.86-36.44-1.78-17.16,20.14-43.66,36.92-45.49Z"/>
    <path class="cls-1" d="M143.52,559.98c16.92-1.85,43.49,19.91,45.46,36.44,1.8,15.07-11.63,32.31-23.2,40.49-15.09,10.67-31.45,4.88-43.98-6.63-11.51-10.57-18.49-21.51-13.58-37.61,3.83-12.56,21.94-31.23,35.29-32.69Z"/>
    <path class="cls-1" d="M353.88,559.98c18.48-2.61,45.95,20.77,46.86,39.15.69,13.89-16.92,36.16-29.22,41.09-19.21,7.7-39.96-7.59-49.87-23.36-12.84-20.43,12.19-54.06,32.23-56.89Z"/>
    <path class="cls-1" d="M493.57,63.43c18.39,19.47,18.16,37.34-1.57,55.43-21.97,20.15-42.01,15.63-59-7.52-11.7-15.95-11.44-28.71,1.14-43.68,18.01-21.42,39.31-25.52,59.42-4.23Z"/>
    <path class="cls-1" d="M460.41,559.98c17.94-2.51,45.6,19.96,46.85,37.84.99,14.19-11.95,30.31-22.67,38.31-20.22,15.09-44-.38-55.82-18.51-13.33-20.43,11.39-54.8,31.64-57.63Z"/>
    <path class="cls-1" d="M35.6,49.96c17.28-3.22,29.78,6.59,39.28,20.02s11.37,27.13.38,40.94c-7.76,9.74-21.79,20.96-34.78,21.15C23.23,132.33,0,105.85,0,88.93c0-14.32,22.03-36.44,35.6-38.97Z"/>
    <path class="cls-1" d="M352.52,49.95c17.75-3.63,32.72,8.69,41.68,22.98,11.03,17.59,6.42,31.77-7.97,45.36-14.78,13.95-31.21,18.84-48.01,5.29-13.08-10.55-24-25.54-19.33-43.33,2.51-9.56,23.89-28.29,33.63-30.29Z"/>
    <path class="cls-1" d="M37,559.98c14.87-1.6,31.92,11.63,40.24,23,14.3,19.55-2.25,45.11-20.04,55.86-21.08,12.75-56.09-13.68-57.11-34.74-.79-16.42,20.76-42.38,36.91-44.12Z"/>
    <path class="cls-1" d="M527.04,149.8c13.2-1.05,30.97,17.25,33.99,29.26,4.95,19.62-19.25,41.86-38.4,39.74-13.11-1.45-30.41-23.38-29.99-36.61s21.51-31.37,34.39-32.39Z"/>
    <path class="cls-1" d="M262.04,149.8c15.34-1.21,34.85,21.71,34.9,36.34.05,15.58-23.61,34.26-39.29,32.67-14.09-1.42-31.25-23.52-29.96-37.98,1.14-12.82,21.87-30.04,34.35-31.03Z"/>
    <path class="cls-1" d="M349.93,149.8c13.07-1.03,31.01,17.41,33.99,29.26,4.91,19.46-19.28,41.85-38.4,39.74-12.9-1.43-30.69-23.46-29.99-36.6.72-13.56,21.33-31.36,34.39-32.4Z"/>
    <path class="cls-1" d="M78.2,473.42c15.24-3.14,29.08,7.36,37.64,19.01,15.19,20.66-13.27,55.46-37.3,47.95-8.57-2.68-25.13-17.91-26.52-26.73-1.1-6.94.05-13.05,3.32-19.14,3.36-6.25,16-19.67,22.86-21.08Z"/>
    <path class="cls-1" d="M520.31,473.42c19.4-4.04,45.29,18.38,41.05,38.39-2.46,11.6-19.23,29.16-31.31,29.93-14.67.93-36.22-17.34-37.25-32.2-.85-12.23,15.77-33.67,27.51-36.12Z"/>
    <path class="cls-1" d="M343.2,473.42c15.75-3.28,38.91,13.27,41.34,28.65,2.52,15.99-16.63,39.27-32.31,39.54-17.03.29-40.24-20.88-35.71-38.97,2.45-9.78,16.65-27.14,26.68-29.23Z"/>
    <path class="cls-1" d="M255.31,473.43c11.25-2.08,21.12,2.67,29.05,10.28,14.42,13.83,16.42,26.47,3.82,42.56-17.52,22.38-37.94,18.45-54.5-2.54-5.61-7.11-7.31-12.18-5.39-21.4,2-9.56,17.3-27.1,27.01-28.9Z"/>
    <path class="cls-1" d="M86.24,149.87c13.41-.48,31.78,18.22,33.48,31.05,2.89,21.82-27.32,47.01-47.47,34.17-14.23-9.07-26.85-27.61-16.89-44.17,5.66-9.42,19.57-20.65,30.89-21.05Z"/>
    <path class="cls-1" d="M114.18,239.06c14.93-.81,30.7,19.22,29.71,33.69-.83,12.12-19.51,27.31-31.41,27.02-12.3-.3-29.02-20.12-28.65-32.35s18.86-27.73,30.36-28.36Z"/>
    <path class="cls-1" d="M478.53,288.88c-12.52-13.41-13.09-26.88.57-39.49,15.55-14.35,29.93-13.28,42.87,3.37,8.07,10.38,10.06,20.07,1.91,31.15-12.56,17.09-30.1,21.32-45.36,4.97Z"/>
    <path class="cls-1" d="M496.42,392.16c11.68-.91,30.86,14.05,32.27,25.65,1.89,15.63-14.1,35.24-30.01,34.61-11.68-.46-30.07-17.2-29.95-29.27.12-11.18,16.53-30.12,27.69-30.99Z"/>
    <path class="cls-1" d="M264.63,392.18c12.15-1.12,32.36,15.25,33.38,27.39.94,11.18-13.58,30.43-24.44,32.15-18.38,2.91-40.64-16.76-34.52-35.86,2.73-8.51,16.41-22.84,25.58-23.68Z"/>
    <path class="cls-1" d="M111.54,392.13c10.75-1.25,30.49,14.07,32.2,24.45,1.89,11.48-3.63,20.61-11.89,27.91-7.38,6.53-12.7,9.13-23.02,7.01-8.37-1.72-24.12-17.05-24.88-25.83-1.09-12.59,15.35-32.13,27.59-33.55Z"/>
    <path class="cls-1" d="M268.53,239.25c12.93-.27,30.21,19.36,29.66,32.02-.42,9.7-15.03,23.88-23.89,26.72-18.41,5.89-38.19-15.36-35.98-33.31,1.38-11.18,18.88-25.18,30.2-25.42Z"/>
    <path class="cls-1" d="M345.93,239.07c9.75-.24,25.32,14.81,27.64,23.59,3.89,14.75-7.65,29.87-21.05,34.96-20.77,7.88-46-21.2-34.59-39.91,5.07-8.3,18.02-18.4,28-18.64Z"/>
    <path class="cls-1" d="M343.09,392.36c15.98-.67,36.14,19.84,30.43,36.81-4.53,13.45-19.68,25.35-34.32,22.34-8.88-1.82-24.56-17.6-24.81-27.13-.33-12.52,16.07-31.48,28.7-32.02Z"/>
    <path class="cls-1" d="M136.7,319.1c14.31-.42,31.52,21.98,24.26,36-2.7,5.21-14.56,15.77-20.56,16.72-18.25,2.9-38.23-20.16-27.54-36.85,4.6-7.18,15.05-15.61,23.83-15.87Z"/>
    <path class="cls-1" d="M477.6,319.1c12.54-.39,26.69,16.93,25.79,29.47s-18.3,25.48-31.26,23.26c-9.8-1.67-22.71-18.57-21.99-28.4s17.48-24.02,27.46-24.33Z"/>
  </g>
  <g class="cls-2">
    <path class="cls-1" d="M1604.5,167.26c4.47,7.71,10.05,15.42,15.43,22.52,19.31,25.52,41.3,60.35,62.05,83.1,1.19,1.31,1.19,2.84,3.75,2.24v-107.86h30.63v154.47h-33.96l-80.56-106.53v104.53l-2,2h-27.96l-2-2v-150.48l2-2h32.63Z"/>
    <path class="cls-1" d="M1539.25,368.34c2.44-.62,4.7-1.2,7.26-1.4,21-1.65,79.86-1.95,98.24,4.42,31.69,11,38.27,52.35,8.27,70.08-1.21.72-2.64-.69-1.91,2.79,10.72-2.04,21.3,9.11,21.3,19.32v57.93h-33.29v-58.59h-66.58v56.59l-2,2h-31.29v-153.14ZM1572.54,434.92h51.27c.68,0,5.55-2.02,6.71-2.61,12.11-6.06,12.9-23.91,2.61-32.02-.94-.74-6.27-4-6.66-4h-53.93v38.62Z"/>
    <path class="cls-1" d="M790.87,367.01c25.91,1.25,53.4-1.64,79.22.01,16.85,1.08,35.44,4.87,45.95,19.3,9.38,12.89,9.16,35.65-1.53,47.73-3.83,4.33-9.45,6.02-13.12,10.17,9.03-2.17,21.31,7.8,21.31,16.66v60.59h-31.96v-58.59h-67.91v58.59h-31.96v-154.47ZM822.83,434.92h52.6c.35,0,5.58-2.34,6.46-2.86,9.74-5.87,12.22-21.03,4.68-29.58-1.2-1.36-8.99-6.17-9.81-6.17h-53.93v38.62Z"/>
    <polygon class="cls-1" points="822.83 167.26 822.83 227.18 898.73 227.18 898.73 167.26 928.69 167.26 930.69 169.26 930.69 319.73 928.69 321.73 898.73 321.73 898.73 256.48 822.83 256.48 822.83 321.73 790.87 321.73 790.87 167.26 822.83 167.26"/>
    <polygon class="cls-1" points="1292.9 167.26 1292.9 227.18 1368.8 227.18 1368.8 167.26 1400.76 167.26 1400.76 321.73 1368.8 321.73 1368.8 256.48 1292.9 256.48 1292.9 321.73 1260.94 321.73 1260.94 167.26 1292.9 167.26"/>
    <path class="cls-1" d="M1891.47,367.01c1.36,1,1.44,1.16,1.45,2.72.06,19.42-2.61,39.27.56,58.53,1.41.49,2.89-1.33,3.32-1.33h71.24v-58.59l31.96-1.33v154.47h-31.96v-65.25h-73.91l-2,2v63.25h-31.96v-152.47l2-2h29.3Z"/>
    <path class="cls-1" d="M1213,413.61h-33.29c-5.21-20.17-24.05-25.3-42.96-22.32-19.02,3-24.87,23.04-6.68,31.34,25.37,11.57,71.6,3.71,81.97,39.21,9.23,31.59-9.76,54.56-40.25,60.37-37.92,7.23-87.27-4.75-90.63-50.01h33.29c2.14,22.82,28.34,27.34,47.13,25.16,22.18-2.58,30.28-25.87,8.36-34.71-24.86-10.04-75.69-5.78-81.81-42.03-5.66-33.51,18.69-52.55,49.57-54.99,34.47-2.73,71.35,8.87,75.29,47.99Z"/>
    <path class="cls-1" d="M985.29,396.3v31.96h73.24v26.63h-73.24v38.62h79.9v27.96h-113.19v-152.47l1.95-1.5c32.29-.22,64.98-1.39,97.34-.55,2.65.07,13.9-.12,13.9,2.05v25.3l-2,2h-77.9Z"/>
    <path class="cls-1" d="M1268.93,396.3c1.76,9.87-2.48,22.57,2,31.96h72.57v26.63h-73.24c-.13,9.22-1.79,18.03-1.39,27.35.14,3.21.45,9.11,2.05,11.27h79.23v27.96h-113.19v-152.47l1.95-1.5h109.29l1.95,1.5v25.3l-2,2h-79.23Z"/>
    <polygon class="cls-1" points="1544.58 167.26 1544.58 196.56 1464.68 196.56 1464.68 226.52 1466.68 228.51 1539.25 228.51 1539.25 255.15 1466.68 255.15 1464.68 257.15 1464.68 291.77 1466.68 293.77 1544.58 293.77 1544.58 321.73 1432.72 321.73 1432.72 167.26 1544.58 167.26"/>
    <path class="cls-1" d="M1143.75,265.8v55.93h-31.96v-154.47h79.23c42.14,0,64.6,49.86,37.92,81.86-6.35,7.61-24.13,16.68-33.92,16.68h-51.27ZM1143.75,237.84h44.61c1.02,0,8.15-2.88,9.6-3.71,14.33-8.2,12.32-31.5-3.58-36.93-.93-.32-8.24-1.97-8.68-1.97h-39.95l-2,2v40.62Z"/>
    <path class="cls-1" d="M1841.53,420.27h-33.29c-3.41-27.62-39.5-32-59.84-20.56-28.12,15.82-29.15,68.97-3.96,87.69,20.33,15.11,59.7,11.42,63.8-17.86h33.29c-5.11,57.79-82.97,69.9-121.81,37.25-34.71-29.18-34.28-96.69,1.32-125.1,38.77-30.94,115.97-18.42,120.48,38.59Z"/>
    <path class="cls-1" d="M1360.81,521.48l62.87-150.86c4.27-6.84,27.44-2.98,35.43-2.04l62.82,152.9h-33.29l-14.51-36.46-66.54-.65-14.83,37.11h-31.96ZM1440.73,401.63l-22.62,53.94,2.98,1.75c11.14-1.72,31.47,2.9,41.41.05.96-.27,2.61-1.45,1.67-2.57l-23.44-53.17Z"/>
    <path class="cls-1" d="M985.29,167.26l35.3,63.93,38.6-63.93h33.96l-55.93,96.54v57.93h-31.96v-56.59c0-5.16-45.7-76.88-52.16-88.99-1.45-2.72-3.49-5.81-3.77-8.89h35.95Z"/>
  </g>
</svg>
