<?xml version="1.0" encoding="UTF-8"?>
<svg id="Layer_1" data-name="Layer 1" xmlns="http://www.w3.org/2000/svg" viewBox="0 0 2000 697.15">
  <defs>
    <style>
      .cls-1 {
        fill: #fff;
      }

      .cls-2 {
        opacity: .5;
      }
    </style>
  </defs>
  <g class="cls-2">
    <g>
      <polygon class="cls-1" points="451.42 280.91 451.42 249.15 247.5 112.54 42.32 249.23 42.32 513.23 451.42 513.23 451.42 481.4 493.73 481.4 493.73 555.55 0 555.55 0 226.62 247.57 61.67 493.73 226.62 493.73 280.91 451.42 280.91"/>
      <g>
        <path class="cls-1" d="M288.77,400.42c-2.9-1.71-6.17-2.75-11.16-4.31,9.74-3.79,18-6.17,21.42-19.34,3.12-10.63,2.6-41.72-5.8-52.5-9.74-12.64-25.36-11.97-40.23-11.97h-119.44v137.73h41.72v-35.77h57.64c4.76,0,16.73-.52,21.2,3.94,4.98,4.46,4.09,16.06,4.09,31.83h41.72v-10.41c.15-11.3,1.71-31.31-11.16-39.19ZM258.65,372.38c-4.61,6.99-17.63,6.47-23.43,6.47h-59.87v-32.87h60.24c5.8,0,18.96-1.04,23.05,6.84,2.23,4.31,2.23,15.91,0,19.56Z"/>
        <path class="cls-1" d="M494.33,407.78v.15c0,10.26-1.56,20.67-4.83,26.25-10.41,17.48-30.49,15.91-49.83,15.91h-76.6c-.89,0-1.86,0-2.9-.07-9.22-.45-24.32-2.9-32.35-14.65-4.46-6.84-4.98-21.57-4.76-30.64h40.98c.22,1.49.52,2.83.89,3.94v.07c2.16,8.4,8.7,7.66,15.62,7.66h54.59c3.79.07,8.33.22,11.9-1.64,1.78-.59,3.2-1.49,4.16-2.6.07-.15.15-.22.22-.37.82-1.26,1.12-3.2,1.04-5.21.15-2.45-.3-5.21-1.04-6.62-3.94-6.17-16.29-5.65-24.84-5.65l-51.17-1.19c-2.68-.07-6.02-.07-9.67-.15-6.54-.15-14.2-.59-21.12-2.6-7.36-2.16-13.91-6.02-17.77-13.09-1.41-2.6-2.38-6.02-3.05-9.89-.59-3.94-.89-8.25-.89-12.64v-.15c.07-2.83.22-5.65.59-8.4.82-6.25,2.45-11.97,4.91-15.99,3.57-5.95,9.44-9.89,16.21-12.49,6.62-2.6,14.13-3.94,21.12-4.61,4.76-.45,9.3-.59,13.16-.67h75.19c.89,0,1.86,0,2.83.07,9.22.45,24.32,2.9,32.35,14.65,4.46,6.84,4.98,21.57,4.76,30.64h-40.98c-.22-1.49-.52-2.83-.89-3.94v-.07c-2.16-8.4-8.7-7.66-15.62-7.66h-54.66c-3.72-.07-8.25-.15-11.82,1.64-1.78.59-3.27,1.49-4.16,2.6-.07.15-.15.22-.22.37-.82,1.26-1.12,3.12-1.04,5.21.07,1.49.45,3.05,1.04,4.54.07.22.15.37.22.59,2.75,5.65,13.54,4.76,25.29,5.13l54.44,1.19c13.31.15,35.77-.15,44.32,16.29,1.49,2.83,2.6,6.84,3.35,11.45v.15c.74,3.72,1.04,8.11,1.04,12.49Z"/>
      </g>
    </g>
    <g>
      <rect class="cls-1" x="545.05" y="309.39" width="23.28" height="142.04"/>
      <g>
        <polygon class="cls-1" points="1013.13 309.39 1045.18 309.39 1045.18 451.43 1021.75 451.43 1021.75 338.69 943.81 451.43 928.49 451.43 849.07 339.21 849.07 451.43 825.64 451.43 825.64 309.39 857.99 309.39 935.49 420.79 1013.13 309.39"/>
        <polygon class="cls-1" points="774.7 309.39 806.75 309.39 806.75 451.43 783.33 451.43 783.33 338.69 705.46 451.43 690.07 451.43 610.64 339.21 610.64 451.43 587.22 451.43 587.22 309.39 619.64 309.39 697.06 420.79 774.7 309.39"/>
        <path class="cls-1" d="M1230.36,321.29c-12.12-12.2-30.34-12.05-43.73-11.9h-66.19c-15.69,0-28.26,1.19-38.37,6.99-17.92,10.19-17.85,29.23-17.85,47.67v32.05c0,13.83-.07,32.87,12.27,45.36,9.37,9.22,27.37,10.04,37.7,10.04h72.36c9.97,0,33.32,0,44.77-11.08,11.23-11.08,11.23-35.7,11.23-43.73v-35.18c.15-13.24.22-28.26-12.2-40.23ZM1087.64,357.66c-.15-11.97-.22-21.42,13.46-26.03,3.57-1.19,7.51-1.41,12.87-1.41h67.68c8.33-.07,25.58-.15,31.76,5.95,5.95,5.95,5.95,16.36,5.95,29.52v24.99c0,15.69-.45,27.29-6.1,33.09-6.69,6.84-20.38,6.77-31.46,6.77h-57.93c-9.52.07-22.46.22-29.23-6.32-6.99-6.84-6.99-19.71-6.92-31.01v-32.35c-.07-.97-.07-2.08-.07-3.2Z"/>
      </g>
      <g>
        <polygon class="cls-1" points="1461.42 309.39 1485.44 309.39 1431.38 451.43 1404.16 451.43 1359.98 337.65 1316.63 451.43 1289.26 451.43 1234.15 309.39 1258.32 309.39 1302.5 422.58 1346.74 309.39 1374.26 309.39 1417.1 422.5 1461.42 309.39"/>
        <path class="cls-1" d="M1789.09,388.07c4.76-1.86,8.4-4.76,11.75-10.04,5.58-8.25,3.72-42.54-.37-50.27-9.97-18.44-36.07-18.44-44.62-18.37h-107.76v142.04h23.43v-54.07h78.76c1.19,0,2.45,0,3.79-.07,7.73-.22,18.29-.45,23.13,4.61,3.94,4.02,3.79,19.34,3.79,26.77v22.76h23.28v-27.74c.15-14.35.3-27.96-15.17-35.62ZM1671.51,330.29h81.66c8.33-.07,20.97-.22,25.73,8.33l.07.15c2.23,3.57,2.75,25.73,0,29.97-5.06,8.11-15.25,8.03-29.38,7.96h-78.09v-46.41h0Z"/>
        <polygon class="cls-1" points="1515.71 430.54 1630.61 430.54 1630.61 451.43 1492.28 451.43 1492.28 309.39 1630.09 309.39 1630.09 330.29 1515.71 330.29 1515.71 367.99 1625.33 367.99 1625.33 388.22 1515.71 388.22 1515.71 430.54"/>
      </g>
      <polygon class="cls-1" points="2000 451.43 1958.87 451.43 1865.62 388.22 1847.54 388.22 1847.54 451.43 1824.27 451.43 1824.27 309.39 1847.54 309.39 1847.54 367.47 1866.66 367.47 1951.59 309.39 1991.45 309.39 1892.31 377.73 2000 451.43"/>
    </g>
  </g>
</svg>
