<?xml version="1.0" encoding="UTF-8"?>
<svg id="Layer_1" data-name="Layer 1" xmlns="http://www.w3.org/2000/svg" viewBox="0 0 2000 697.15">
  <defs>
    <style>
      .cls-1 {
        fill: #fff;
      }

      .cls-2 {
        opacity: .5;
      }
    </style>
  </defs>
  <g class="cls-2">
    <g>
      <path class="cls-1" d="M801.44,376.26c11.05-.56,14.18,3.8,9.38,13.06l-144.19,276.36c-4.47,9.26-12.23,14.16-23.28,14.72l-105.55,5.33c-10.73.54-16.53-3.67-17.42-12.66l-9.66-85.4-43.12,88.06c-4.47,9.26-12.23,14.16-23.28,14.72l-131.69,6.65c-11.06.56-16.7-3.67-16.92-12.68l-13.13-268.41c-.9-8.98,4.35-13.76,15.74-14.33l100.52-5.08c10.72-.54,16.52,3.68,17.42,12.66l8.58,159.49,74.35-163.68c3.8-9.22,11.22-14.11,22.28-14.67l56.8-2.87c10.38-.52,16.02,3.71,16.92,12.68l11.1,159.36,71.83-163.55c4.46-9.25,12.06-14.15,22.78-14.69l100.52-5.08h.02Z"/>
      <path class="cls-1" d="M790.19,672.55c-11.06.56-15.69-3.71-13.91-12.83l53.04-270.91c1.84-9.4,8.29-14.38,19.34-14.94l92.48-4.67c10.72-.54,15.16,3.89,13.32,13.29l-53.04,270.91c-1.79,9.12-8.04,13.94-18.76,14.48l-92.48,4.67h0Z"/>
      <path class="cls-1" d="M951.02,664.43c-11.06.56-15.69-3.71-13.91-12.83l53.04-270.91c1.84-9.4,8.29-14.38,19.34-14.94l74.38-3.76c11.06-.56,18.48,3.02,22.29,10.72l56.99,113.04,22.51-114.95c1.84-9.4,8.29-14.38,19.34-14.94l92.48-4.67c11.06-.56,15.66,3.86,13.82,13.26l-53.04,270.91c-1.79,9.12-8.2,13.95-19.26,14.51l-75.89,3.84c-11.06.56-18.69-2.86-22.88-10.26l-57.49-102.87-20.5,104.69c-1.79,9.12-8.04,13.94-18.76,14.48l-92.48,4.67h.02Z"/>
      <path class="cls-1" d="M1307.37,646.42c-11.06.56-15.69-3.71-13.91-12.83l53.04-270.91c1.84-9.4,8.29-14.38,19.34-14.94l270.91-13.69c10.72-.54,15.16,3.89,13.32,13.29l-10.71,54.7c-1.84,9.4-8.12,14.37-18.84,14.91l-162.35,8.2-5.02,25.64,148.27-7.49c11.06-.56,15.67,3.86,13.83,13.26l-10.46,53.41c-1.84,9.4-8.29,14.38-19.35,14.94l-148.27,7.49-4.6,23.5,162.35-8.2c10.72-.54,15.16,3.89,13.32,13.29l-11.21,57.26c-1.79,9.12-8.04,13.94-18.76,14.48l-270.91,13.69h.01Z"/>
    </g>
    <path class="cls-1" d="M562.55,164.79c-5.87-3.93-12.56-6.98-20.11-9.14-7.54-2.16-15.5-3.03-23.88-2.6-8.38.42-16.58,2.11-24.62,5.05s-15.36,6.84-21.95,11.68c-6.59,4.85-12.19,10.56-16.79,17.14-4.61,6.58-7.66,13.71-9.17,21.4s-1.19,14.52.97,20.47c2.14,5.96,5.64,11,10.48,15.13,4.83,4.13,10.71,7.15,17.64,9.05,6.92,1.91,14.41,2.66,22.45,2.25,8.71-.44,17.42-2.15,26.13-5.13s16.69-6.9,23.96-11.78c5.3-3.37,9.29-5.13,11.97-5.26,3.02-.15,5.84,1.54,8.47,5.07l43.49,62.53c5.8,7.61,4.08,14.75-5.19,21.42s-19.56,12.62-30.86,17.85c-11.31,5.22-23.02,9.56-35.14,12.99s-24.18,6.15-36.18,8.18c-12.01,2.01-23.38,3.3-34.1,3.84-26.14,1.32-49.75-1.37-70.83-8.06-21.09-6.69-38.46-16.67-52.11-29.94-13.66-13.27-23.26-29.5-28.79-48.68s-6.01-40.45-1.44-63.81c4.52-23.08,13.22-44.67,26.12-64.78,12.89-20.11,28.87-37.77,47.95-52.98,19.06-15.2,40.71-27.44,64.91-36.7,24.21-9.26,49.88-14.58,77.02-15.95,10.72-.54,21.8-.4,33.26.43,11.44.84,22.67,2.38,33.67,4.64,11,2.27,21.25,5.42,30.74,9.45,9.49,4.04,17.62,9.12,24.38,15.27,6.48,5.88,5.4,13.13-3.26,21.74l-68.43,67.34c-4.07,3.88-7.62,5.88-10.64,6.04-2.69.14-6.06-1.24-10.14-4.14h.02Z"/>
    <path class="cls-1" d="M1168.99,227.25l-15.39,78.58c-1.79,9.13-8.19,13.95-19.28,14.51l-486.64,24.59c-11.03.56-15.66-3.71-13.88-12.79l53.05-270.92c1.85-9.43,8.28-14.39,19.31-14.95l92.49-4.67c10.74-.54,15.17,3.88,13.32,13.3l-34.89,178.17,378.06-19.1c11.09-.56,15.69,3.85,13.84,13.28h.01Z"/>
    <path class="cls-1" d="M1205,316.79c-11.06.56-15.69-3.71-13.91-12.83l53.04-270.91c1.84-9.4,8.29-14.38,19.34-14.94l92.48-4.67c10.72-.54,15.16,3.89,13.32,13.29l-53.04,270.91c-1.79,9.12-8.04,13.94-18.76,14.48l-92.48,4.67h.01Z"/>
    <path class="cls-1" d="M1618.12.18c15.41-.78,29.67.97,42.77,5.24,13.09,4.28,24.15,10.49,33.18,18.63,9.01,8.15,15.58,17.83,19.69,29.04,4.1,11.22,4.85,23.52,2.23,36.91-3.18,16.24-8.35,31.59-15.49,46.05-7.15,14.47-16.54,27.28-28.18,38.44-11.64,11.17-25.36,20.26-41.16,27.26s-34.09,11.03-54.87,12.08l-83.43,4.22-13.97,71.36c-1.79,9.12-8.04,13.94-18.76,14.48l-92.48,4.67c-11.06.56-15.69-3.71-13.91-12.83l53.04-270.91c1.84-9.4,8.29-14.38,19.34-14.94L1618.12.18h0ZM1515.2,103.96l-7.7,39.31,58.31-2.95c4.68-.24,9-2.36,12.94-6.37,3.93-4.01,6.43-8.71,7.49-14.13s.37-9.96-2.06-13.65-6-5.41-10.68-5.17l-58.31,2.95h.01Z"/>
  </g>
</svg>
