<?xml version="1.0" encoding="UTF-8"?>
<svg id="Layer_1" data-name="Layer 1" xmlns="http://www.w3.org/2000/svg" viewBox="0 0 2000 697.15">
  <defs>
    <style>
      .cls-1 {
        fill: #fff;
      }

      .cls-2 {
        opacity: .5;
      }
    </style>
  </defs>
  <g class="cls-2">
    <g>
      <path class="cls-1" d="M461.96,499.56l-230.98,117.74L0,499.56.53,191.49l229.13-118.83,231,118.02,1.31,308.88ZM33.37,478.9l197.6,100.26,197.08-101.59V212.14s-197.08-101.57-197.08-101.57L34.68,211.34l-1.31,267.56Z"/>
      <path class="cls-1" d="M99.86,477.56l114.4-264.64c5.79-.64,31.56-2.4,34.21.81l56.16,127.73c-2.28,4.5-23.34,24.58-26.76,21.68l-46.89-108.07-50.07,114.4c54.86,28.96,123.37,4.93,143.47-54.38,2.16-6.38,5.93-19.65,5.93-25.86v-51.65h33.37v58.01c0,5.26-4.2,19.98-5.94,25.84-6.78,22.78-19.72,42.29-36.72,58.62l41.07,97.51h-36.55l-31.81-77.88c-38.4,20.8-86.49,21.53-124.74.04l-32.57,77.84h-36.55Z"/>
      <path class="cls-1" d="M131.65,237.58v56.42c0,4.88,5.07,20.9,7.18,26.19,3.31,8.3,9.12,14.8,12.02,23.05l-13.66,32.6c-2.72.64-18.5-21.66-20.69-25.37-6.42-10.83-18.22-39.79-18.22-51.71v-61.19h33.37Z"/>
    </g>
    <g>
      <path class="cls-1" d="M550.84,304.97c6.79-11.9,16.07-21.18,27.83-27.83,11.76-6.65,24.94-9.97,39.55-9.97,17.09,0,32.07,4.38,44.92,13.15,12.85,8.77,21.84,20.89,26.95,36.37h-35.28c-3.51-7.3-8.44-12.78-14.79-16.44-6.35-3.65-13.7-5.48-22.02-5.48-8.91,0-16.84,2.08-23.78,6.24-6.94,4.16-12.35,10.05-16.22,17.64-3.87,7.6-5.81,16.51-5.81,26.73s1.93,18.95,5.81,26.62c3.87,7.67,9.27,13.59,16.22,17.75,6.94,4.16,14.86,6.25,23.78,6.25,8.33,0,15.67-1.86,22.02-5.59,6.35-3.73,11.28-9.24,14.79-16.54h35.28c-5.12,15.63-14.06,27.79-26.84,36.48-12.79,8.69-27.79,13.04-45.03,13.04-14.61,0-27.79-3.32-39.55-9.97-11.76-6.65-21.04-15.89-27.83-27.72-6.79-11.83-10.19-25.27-10.19-40.32s3.4-28.52,10.19-40.43Z"/>
      <path class="cls-1" d="M711.45,328.31c4.89-9.49,11.54-16.8,19.94-21.91,8.4-5.11,17.78-7.67,28.16-7.67,9.06,0,16.98,1.83,23.77,5.48,6.79,3.65,12.23,8.26,16.33,13.81v-17.31h30.9v121.4h-30.9v-17.75c-3.94,5.7-9.39,10.41-16.33,14.13-6.94,3.72-14.94,5.59-23.99,5.59-10.23,0-19.54-2.63-27.94-7.89-8.4-5.26-15.05-12.67-19.94-22.24-4.9-9.57-7.34-20.56-7.34-32.98s2.44-23.15,7.34-32.65ZM795.27,342.23c-2.92-5.33-6.87-9.42-11.83-12.27-4.97-2.85-10.3-4.27-16-4.27s-10.96,1.39-15.78,4.16c-4.82,2.78-8.73,6.83-11.72,12.16-3,5.34-4.49,11.65-4.49,18.96s1.5,13.7,4.49,19.17c2.99,5.48,6.94,9.68,11.83,12.6,4.89,2.93,10.11,4.38,15.67,4.38s11.03-1.42,16-4.27c4.96-2.85,8.91-6.94,11.83-12.27,2.92-5.33,4.38-11.72,4.38-19.17s-1.46-13.84-4.38-19.17Z"/>
      <path class="cls-1" d="M902.31,304.43c6.35-3.65,13.62-5.48,21.8-5.48v32.21h-8.11c-9.64,0-16.91,2.27-21.8,6.79-4.9,4.53-7.34,12.42-7.34,23.67v60.48h-30.68v-121.4h30.68v18.84c3.94-6.43,9.09-11.46,15.45-15.12Z"/>
      <path class="cls-1" d="M942.41,281.09c-3.58-3.43-5.37-7.7-5.37-12.82s1.79-9.39,5.37-12.82c3.58-3.43,8.07-5.15,13.48-5.15s9.9,1.72,13.48,5.15c3.58,3.43,5.37,7.71,5.37,12.82s-1.79,9.39-5.37,12.82c-3.58,3.43-8.07,5.15-13.48,5.15s-9.9-1.72-13.48-5.15ZM971.01,300.7v121.4h-30.68v-121.4h30.68Z"/>
      <path class="cls-1" d="M1032.58,325.9v58.73c0,4.09.99,7.05,2.96,8.87,1.97,1.83,5.29,2.74,9.97,2.74h14.24v25.86h-19.28c-25.86,0-38.78-12.56-38.78-37.69v-58.51h-14.46v-25.2h14.46v-30.02h30.9v30.02h27.17v25.2h-27.17Z"/>
      <path class="cls-1" d="M1193.63,300.7l-75.16,178.81h-32.65l26.3-60.48-48.65-118.33h34.4l31.34,84.8,31.77-84.8h32.65Z"/>
      <path class="cls-1" d="M1296.84,385.72h-69.68l-13.37,36.37h-16.22l55.88-151.2h17.31l55.66,151.2h-16.22l-13.37-36.37ZM1292.24,373.01l-30.24-82.83-30.24,82.83h60.48Z"/>
      <path class="cls-1" d="M1361.92,259.94v162.15h-15.34v-162.15h15.34Z"/>
      <path class="cls-1" d="M1407.71,259.94v162.15h-15.34v-162.15h15.34Z"/>
      <path class="cls-1" d="M1437.95,276.6c-2.19-2.19-3.29-4.89-3.29-8.11s1.1-5.88,3.29-8c2.19-2.12,4.82-3.18,7.89-3.18s5.7,1.06,7.89,3.18c2.19,2.12,3.29,4.79,3.29,8s-1.09,5.92-3.29,8.11-4.82,3.29-7.89,3.29-5.7-1.09-7.89-3.29ZM1453.51,302.45v119.64h-15.34v-119.64h15.34Z"/>
      <path class="cls-1" d="M1484.29,329.74c4.89-9.27,11.69-16.43,20.38-21.47,8.69-5.04,18.52-7.56,29.47-7.56s21.22,2.63,29.47,7.89c8.25,5.26,14.2,11.98,17.86,20.16v-26.3h15.34v119.64h-15.34v-26.51c-3.8,8.18-9.83,14.94-18.08,20.27-8.26,5.33-18.08,8-29.47,8s-20.56-2.55-29.25-7.67c-8.69-5.11-15.49-12.34-20.38-21.69-4.9-9.35-7.34-20.16-7.34-32.43s2.44-23.04,7.34-32.32ZM1575.56,336.86c-3.94-7.3-9.31-12.93-16.11-16.87-6.79-3.94-14.28-5.92-22.46-5.92s-16.07,1.9-22.79,5.7c-6.72,3.8-12.02,9.31-15.89,16.54-3.87,7.23-5.81,15.81-5.81,25.75s1.94,18.37,5.81,25.75c3.87,7.38,9.17,13,15.89,16.87,6.72,3.87,14.32,5.81,22.79,5.81s15.67-1.97,22.46-5.92c6.79-3.94,12.16-9.57,16.11-16.87,3.94-7.3,5.92-15.78,5.92-25.42s-1.97-18.11-5.92-25.42Z"/>
      <path class="cls-1" d="M1718.65,313.52c9.06,8.84,13.59,21.66,13.59,38.46v70.12h-15.12v-68.37c0-13-3.25-22.93-9.75-29.8-6.5-6.86-15.38-10.3-26.62-10.3s-20.74,3.65-27.61,10.96c-6.87,7.31-10.3,18.04-10.3,32.21v65.3h-15.34v-119.64h15.34v20.38c3.8-7.3,9.27-12.89,16.43-16.76,7.16-3.87,15.26-5.81,24.32-5.81,14.31,0,26,4.42,35.06,13.26Z"/>
      <path class="cls-1" d="M1762.25,329.74c4.97-9.27,11.83-16.43,20.6-21.47,8.77-5.04,18.77-7.56,30.02-7.56,14.75,0,26.91,3.65,36.49,10.96,9.57,7.31,15.74,17.24,18.52,29.8h-16.44c-2.05-8.62-6.46-15.37-13.26-20.27-6.79-4.89-15.23-7.34-25.31-7.34-8.04,0-15.27,1.83-21.69,5.48-6.43,3.65-11.5,9.09-15.23,16.33-3.72,7.23-5.59,16.11-5.59,26.62s1.86,19.43,5.59,26.73c3.73,7.31,8.8,12.78,15.23,16.43,6.43,3.65,13.66,5.48,21.69,5.48,10.08,0,18.52-2.44,25.31-7.34,6.79-4.89,11.21-11.72,13.26-20.49h16.44c-2.78,12.27-8.98,22.13-18.63,29.58-9.64,7.45-21.77,11.18-36.38,11.18-11.25,0-21.25-2.52-30.02-7.56-8.77-5.04-15.63-12.2-20.6-21.47-4.97-9.27-7.45-20.12-7.45-32.54s2.48-23.26,7.45-32.54Z"/>
      <path class="cls-1" d="M1999.56,368.19h-99.26c.44,9.06,2.63,16.8,6.58,23.23,3.94,6.43,9.13,11.28,15.56,14.57,6.43,3.29,13.44,4.93,21.04,4.93,9.93,0,18.3-2.41,25.09-7.23,6.79-4.82,11.28-11.32,13.48-19.5h16.22c-2.92,11.69-9.17,21.22-18.73,28.59-9.57,7.38-21.58,11.07-36.05,11.07-11.25,0-21.33-2.52-30.24-7.56-8.91-5.04-15.89-12.2-20.93-21.47-5.04-9.27-7.56-20.12-7.56-32.54s2.48-23.3,7.45-32.65c4.97-9.35,11.91-16.51,20.82-21.47,8.91-4.96,19.06-7.45,30.46-7.45s21.37,2.49,29.91,7.45c8.55,4.97,15.12,11.65,19.72,20.05,4.6,8.4,6.9,17.72,6.9,27.94,0,5.26-.15,9.28-.44,12.05ZM1979.07,332.91c-3.72-6.28-8.8-11.03-15.23-14.24-6.43-3.21-13.44-4.82-21.04-4.82-11.39,0-21.11,3.65-29.14,10.96-8.04,7.31-12.49,17.61-13.37,30.9h84.14c.14-8.91-1.64-16.51-5.37-22.79Z"/>
    </g>
  </g>
</svg>
