<?xml version="1.0" encoding="UTF-8"?>
<svg id="Layer_1" data-name="Layer 1" xmlns="http://www.w3.org/2000/svg" viewBox="0 0 2000 697.15">
  <defs>
    <style>
      .cls-1 {
        fill: #fff;
      }

      .cls-2 {
        opacity: .5;
      }
    </style>
  </defs>
  <g class="cls-2">
    <g>
      <polygon class="cls-1" points="240 567.98 504.7 347.41 240 129.17 486.46 129.17 752.91 348.58 487.64 567.98 240 567.98"/>
      <polygon class="cls-1" points="285.88 450.34 157.64 346.81 157.64 567.98 0 567.98 0 129.17 142.94 129.17 285.88 247.4 285.88 450.34"/>
    </g>
    <g>
      <polygon class="cls-1" points="931.56 206.25 1102.24 426.3 1105.78 428.26 1105.78 206.25 1142.78 206.25 1142.78 493.02 1107.32 493.02 936.19 275.63 936.19 493.02 899.18 493.02 899.18 206.25 931.56 206.25"/>
      <path class="cls-1" d="M1660.81,198.54v124.88c3.61.93,2.58-.85,3.54-1.96,35.69-41.55,85.04-60.57,132.16-20.42,96.24,82.01-5.8,259.9-121,174.96l-17.78-20v37h-32.38V198.54h35.46ZM1719.03,311.49c-21.13,2.9-56.26,31.11-58.29,52.72-1.72,18.33-2.35,56.41,7.14,71.64,16.91,27.13,56.05,37.35,84.94,25.07,74.37-31.62,48.93-160.78-33.79-149.43Z"/>
      <path class="cls-1" d="M1250.36,280.68c38.93-4.39,77.04,10.22,100.45,41.76l-122.51,122.78c-1.37,3.17,17.54,13.26,20.89,14.62,55.28,22.42,110.87-25.09,96.21-82.47l26.34-15.37c21.32,50.97-18,113.42-67.79,129.52-99.11,32.06-185.72-80.6-123.9-167.07,15.77-22.06,42.91-40.68,70.32-43.77ZM1248.79,309.95c-54.01,7.31-77.97,79.07-40.32,118.25l100.7-99.59c-12.92-16.78-40.32-21.37-60.38-18.66Z"/>
      <path class="cls-1" d="M1486.28,280.71c147.78-15.18,160.8,207.71,21.11,216.92-142.05,9.36-154.39-203.23-21.11-216.92ZM1489.31,311.49c-85.49,11.73-76.83,162.21,15,155.29,93.28-7.04,81.46-168.52-15-155.29Z"/>
      <polygon class="cls-1" points="1969.16 197 1969.16 283.34 2000 283.34 2000 311.09 1969.16 311.09 1969.16 494.56 1933.7 494.56 1933.7 311.09 1904.41 311.09 1904.41 283.34 1933.7 283.34 1933.7 197 1969.16 197"/>
      <polygon class="cls-1" points="1890.54 493.02 1853.53 493.02 1853.53 281.8 1888.22 281.8 1890.54 284.11 1890.54 493.02"/>
      <polygon class="cls-1" points="1890.54 198.54 1890.54 240.94 1888.22 243.25 1855.85 243.25 1853.53 240.94 1853.53 198.54 1890.54 198.54"/>
    </g>
  </g>
</svg>
