<?xml version="1.0" encoding="UTF-8"?>
<svg id="Layer_1" xmlns="http://www.w3.org/2000/svg" version="1.1" viewBox="0 0 1424.32 250.1">
  <defs>
    <style>
      .st0 { fill: #fff; }
    </style>
  </defs>
  <path class="st0" d="M302.72,0l-120.48,250.09h-61.75L0,0h61.64l101.65,210.99c4.14,8.59,16.36,8.59,20.5,0L285.43,0h17.29Z"/>
  <path class="st0" d="M1009.83,201.09c13.76,16.33,27.52,32.67,41.28,49h-72.54c-27.57-32.83-55.13-65.66-82.7-98.5l-3.38-4.03-9.53-11.38h82.77c6.28,0,11.38-5.09,11.38-11.38V34.14c0-12.57-10.19-22.76-22.76-22.76h-95.39v238.69h-55.53V0h173.68v-.02h32.78c12.57,0,22.76,10.19,22.76,22.76v102.06c0,12.57-10.19,22.76-22.76,22.76h-44.93l3.38,4.03,8.77,10.47,32.72,39.03h0Z"/>
  <path class="st0" d="M550.29,0l120.49,250.09h-61.64l-101.65-210.99c-4.14-8.59-16.36-8.59-20.5,0l-101.64,210.99h-17.28L488.55,0h61.75-.01Z"/>
  <path class="st0" d="M1424.33,158.95v68.39c0,12.57-10.19,22.76-22.76,22.76h-170.46v-.02h-13.25c-12.57,0-22.76-10.19-22.76-22.76V22.76c0-12.57,10.19-22.76,22.76-22.76h183.7c12.57,0,22.76,10.19,22.76,22.76v68.22h-55.53V22.76c0-6.28-5.09-11.38-11.38-11.38h-95.39c-6.28,0-11.38,5.09-11.38,11.38v204.59c0,6.28,5.09,11.38,11.38,11.38h95.4c6.28,0,11.38-5.09,11.38-11.38v-68.4c0-6.28-5.09-11.38-11.38-11.38h-26.17l-9.53-11.38h79.86c12.57,0,22.76,10.19,22.76,22.76h0Z"/>
</svg>
